<mxfile host="app.diagrams.net" agent="Mozilla/5.0 (Windows NT 10.0; Win64; x64) AppleWebKit/537.36 (KHTML, like Gecko) Chrome/141.0.0.0 Safari/537.36" version="28.2.8">
  <diagram name="Bảng lỗi UML" id="9NaNFxSMtDETYlPbmrEr">
    <mxGraphModel dx="947" dy="522" grid="0" gridSize="10" guides="1" tooltips="1" connect="1" arrows="1" fold="1" page="1" pageScale="1" pageWidth="850" pageHeight="1100" math="0" shadow="0">
      <root>
        <mxCell id="0" />
        <mxCell id="1" parent="0" />
        <mxCell id="sOKTVX3ro79VXEp7SlIW-1" value="Loại lỗi" style="shape=rectangle;whiteSpace=wrap;html=1;align=center;fontStyle=1;" vertex="1" parent="1">
          <mxGeometry y="65" width="180" height="60" as="geometry" />
        </mxCell>
        <mxCell id="sOKTVX3ro79VXEp7SlIW-2" value="Mô tả chi tiết" style="shape=rectangle;whiteSpace=wrap;html=1;align=center;fontStyle=1;" vertex="1" parent="1">
          <mxGeometry x="180" y="65" width="389" height="60" as="geometry" />
        </mxCell>
        <mxCell id="sOKTVX3ro79VXEp7SlIW-3" value="Cách sửa" style="shape=rectangle;whiteSpace=wrap;html=1;align=center;fontStyle=1;" vertex="1" parent="1">
          <mxGeometry x="569" y="65" width="280" height="60" as="geometry" />
        </mxCell>
        <mxCell id="sOKTVX3ro79VXEp7SlIW-4" value="Lỗi quan hệ giữa các lớp" style="shape=rectangle;whiteSpace=wrap;html=1;align=left;strokeColor=#000000;" vertex="1" parent="1">
          <mxGeometry y="125" width="180" height="80" as="geometry" />
        </mxCell>
        <mxCell id="sOKTVX3ro79VXEp7SlIW-5" value="Sơ đồ không thể hiện mối quan hệ giữa &lt;b&gt;User&lt;/b&gt; và &lt;b&gt;Order&lt;/b&gt;, trong khi thực tế một người dùng có thể tạo nhiều đơn hàng." style="shape=rectangle;whiteSpace=wrap;html=1;align=left;strokeColor=#000000;" vertex="1" parent="1">
          <mxGeometry x="180" y="125" width="389" height="80" as="geometry" />
        </mxCell>
        <mxCell id="sOKTVX3ro79VXEp7SlIW-6" value="Thêm quan hệ &lt;b&gt;1–N (User – Order)&lt;/b&gt;: Một User có nhiều Order." style="shape=rectangle;whiteSpace=wrap;html=1;align=left;strokeColor=#000000;" vertex="1" parent="1">
          <mxGeometry x="569" y="125" width="280" height="80" as="geometry" />
        </mxCell>
        <mxCell id="sOKTVX3ro79VXEp7SlIW-7" value="Lỗi multiplicity (bội số)" style="shape=rectangle;whiteSpace=wrap;html=1;align=left;strokeColor=#000000;" vertex="1" parent="1">
          <mxGeometry y="205" width="180" height="80" as="geometry" />
        </mxCell>
        <mxCell id="sOKTVX3ro79VXEp7SlIW-8" value="Không ghi rõ bội số (1..*, 0..1...), dẫn đến không xác định được số lượng đối tượng liên kết." style="shape=rectangle;whiteSpace=wrap;html=1;align=left;strokeColor=#000000;" vertex="1" parent="1">
          <mxGeometry x="180" y="205" width="389" height="80" as="geometry" />
        </mxCell>
        <mxCell id="sOKTVX3ro79VXEp7SlIW-9" value="Ghi rõ multiplicity: User (1) —— (0..*) Order." style="shape=rectangle;whiteSpace=wrap;html=1;align=left;strokeColor=#000000;" vertex="1" parent="1">
          <mxGeometry x="569" y="205" width="280" height="80" as="geometry" />
        </mxCell>
        <mxCell id="sOKTVX3ro79VXEp7SlIW-10" value="Lỗi modifier (phạm vi truy cập)" style="shape=rectangle;whiteSpace=wrap;html=1;align=left;strokeColor=#000000;" vertex="1" parent="1">
          <mxGeometry y="285" width="180" height="80" as="geometry" />
        </mxCell>
        <mxCell id="sOKTVX3ro79VXEp7SlIW-11" value="Dấu “+” trước mọi thuộc tính nghĩa là public, điều này không đúng với dữ liệu nhạy cảm như password hoặc email." style="shape=rectangle;whiteSpace=wrap;html=1;align=left;strokeColor=#000000;" vertex="1" parent="1">
          <mxGeometry x="180" y="285" width="389" height="80" as="geometry" />
        </mxCell>
        <mxCell id="sOKTVX3ro79VXEp7SlIW-12" value="Đổi các thuộc tính thành private (-) và để phương thức là public (+)." style="shape=rectangle;whiteSpace=wrap;html=1;align=left;strokeColor=#000000;" vertex="1" parent="1">
          <mxGeometry x="569" y="285" width="280" height="80" as="geometry" />
        </mxCell>
        <mxCell id="sOKTVX3ro79VXEp7SlIW-13" value="Thiếu kiểu dữ liệu" style="shape=rectangle;whiteSpace=wrap;html=1;align=left;strokeColor=#000000;" vertex="1" parent="1">
          <mxGeometry y="365" width="180" height="80" as="geometry" />
        </mxCell>
        <mxCell id="sOKTVX3ro79VXEp7SlIW-14" value="Các thuộc tính và phương thức không ghi kiểu dữ liệu (String, Date, Number...)" style="shape=rectangle;whiteSpace=wrap;html=1;align=left;strokeColor=#000000;" vertex="1" parent="1">
          <mxGeometry x="180" y="365" width="389" height="80" as="geometry" />
        </mxCell>
        <mxCell id="sOKTVX3ro79VXEp7SlIW-15" value="Bổ sung kiểu dữ liệu cho thuộc tính và kiểu trả về cho phương thức." style="shape=rectangle;whiteSpace=wrap;html=1;align=left;strokeColor=#000000;" vertex="1" parent="1">
          <mxGeometry x="569" y="365" width="280" height="80" as="geometry" />
        </mxCell>
        <mxCell id="sOKTVX3ro79VXEp7SlIW-17" value="User" style="swimlane;fontStyle=1;align=center;verticalAlign=top;childLayout=stackLayout;horizontal=1;startSize=26;horizontalStack=0;resizeParent=1;resizeParentMax=0;resizeLast=0;collapsible=1;marginBottom=0;whiteSpace=wrap;html=1;" vertex="1" parent="1">
          <mxGeometry x="67" y="583" width="160" height="132" as="geometry" />
        </mxCell>
        <mxCell id="sOKTVX3ro79VXEp7SlIW-18" value="&lt;div&gt;- username: String&lt;/div&gt;&lt;div&gt;- password: String&lt;/div&gt;&lt;div&gt;- email: String&lt;/div&gt;" style="text;strokeColor=none;fillColor=none;align=left;verticalAlign=top;spacingLeft=4;spacingRight=4;overflow=hidden;rotatable=0;points=[[0,0.5],[1,0.5]];portConstraint=eastwest;whiteSpace=wrap;html=1;" vertex="1" parent="sOKTVX3ro79VXEp7SlIW-17">
          <mxGeometry y="26" width="160" height="54" as="geometry" />
        </mxCell>
        <mxCell id="sOKTVX3ro79VXEp7SlIW-19" value="" style="line;strokeWidth=1;fillColor=none;align=left;verticalAlign=middle;spacingTop=-1;spacingLeft=3;spacingRight=3;rotatable=0;labelPosition=right;points=[];portConstraint=eastwest;strokeColor=inherit;" vertex="1" parent="sOKTVX3ro79VXEp7SlIW-17">
          <mxGeometry y="80" width="160" height="8" as="geometry" />
        </mxCell>
        <mxCell id="sOKTVX3ro79VXEp7SlIW-20" value="&lt;div&gt;+ login(): Boolean&lt;/div&gt;&lt;div&gt;+ resetPassword(): void&lt;/div&gt;" style="text;strokeColor=none;fillColor=none;align=left;verticalAlign=top;spacingLeft=4;spacingRight=4;overflow=hidden;rotatable=0;points=[[0,0.5],[1,0.5]];portConstraint=eastwest;whiteSpace=wrap;html=1;" vertex="1" parent="sOKTVX3ro79VXEp7SlIW-17">
          <mxGeometry y="88" width="160" height="44" as="geometry" />
        </mxCell>
        <mxCell id="sOKTVX3ro79VXEp7SlIW-21" value="Oder" style="swimlane;fontStyle=1;align=center;verticalAlign=top;childLayout=stackLayout;horizontal=1;startSize=26;horizontalStack=0;resizeParent=1;resizeParentMax=0;resizeLast=0;collapsible=1;marginBottom=0;whiteSpace=wrap;html=1;" vertex="1" parent="1">
          <mxGeometry x="284" y="580" width="160" height="119" as="geometry" />
        </mxCell>
        <mxCell id="sOKTVX3ro79VXEp7SlIW-22" value="&lt;div&gt;- orderId: int&lt;/div&gt;&lt;div&gt;- orderDate: Date&lt;/div&gt;&lt;div&gt;- totalAmount: double&lt;/div&gt;" style="text;strokeColor=none;fillColor=none;align=left;verticalAlign=top;spacingLeft=4;spacingRight=4;overflow=hidden;rotatable=0;points=[[0,0.5],[1,0.5]];portConstraint=eastwest;whiteSpace=wrap;html=1;" vertex="1" parent="sOKTVX3ro79VXEp7SlIW-21">
          <mxGeometry y="26" width="160" height="59" as="geometry" />
        </mxCell>
        <mxCell id="sOKTVX3ro79VXEp7SlIW-23" value="" style="line;strokeWidth=1;fillColor=none;align=left;verticalAlign=middle;spacingTop=-1;spacingLeft=3;spacingRight=3;rotatable=0;labelPosition=right;points=[];portConstraint=eastwest;strokeColor=inherit;" vertex="1" parent="sOKTVX3ro79VXEp7SlIW-21">
          <mxGeometry y="85" width="160" height="8" as="geometry" />
        </mxCell>
        <mxCell id="sOKTVX3ro79VXEp7SlIW-24" value="+ calculateTotal(): double" style="text;strokeColor=none;fillColor=none;align=left;verticalAlign=top;spacingLeft=4;spacingRight=4;overflow=hidden;rotatable=0;points=[[0,0.5],[1,0.5]];portConstraint=eastwest;whiteSpace=wrap;html=1;" vertex="1" parent="sOKTVX3ro79VXEp7SlIW-21">
          <mxGeometry y="93" width="160" height="26" as="geometry" />
        </mxCell>
        <mxCell id="sOKTVX3ro79VXEp7SlIW-25" style="edgeStyle=orthogonalEdgeStyle;rounded=0;orthogonalLoop=1;jettySize=auto;html=1;entryX=0;entryY=0.5;entryDx=0;entryDy=0;" edge="1" parent="1" source="sOKTVX3ro79VXEp7SlIW-18" target="sOKTVX3ro79VXEp7SlIW-22">
          <mxGeometry relative="1" as="geometry" />
        </mxCell>
        <mxCell id="sOKTVX3ro79VXEp7SlIW-26" value="1&amp;nbsp; &amp;nbsp; &amp;nbsp; &amp;nbsp;*" style="text;html=1;whiteSpace=wrap;strokeColor=none;fillColor=none;align=center;verticalAlign=middle;rounded=0;" vertex="1" parent="1">
          <mxGeometry x="227" y="643" width="60" height="30" as="geometry" />
        </mxCell>
      </root>
    </mxGraphModel>
  </diagram>
</mxfile>
